<svg width="40" height="40" viewBox="0 0 40 40" fill="none" xmlns="http://www.w3.org/2000/svg">
<g clip-path="url(#clip0)">
<path d="M34.1431 5.85789C30.3656 2.08039 25.3432 0 20.0009 0C14.6586 0 9.63637 2.08039 5.85879 5.85789C2.08137 9.63539 0.000976562 14.6578 0.000976562 20C0.000976562 25.3422 2.08137 30.3646 5.85887 34.1422C9.63637 37.9196 14.6588 40 20.001 40C23.315 40 26.5985 39.1723 29.4962 37.6064C30.0808 37.2905 30.2986 36.5605 29.9827 35.9759C29.6669 35.3913 28.937 35.1735 28.3522 35.4894C25.8046 36.866 22.9168 37.5936 20.001 37.5936C10.2998 37.5936 2.4073 29.7012 2.4073 20C2.4073 10.2988 10.2998 2.40641 20.0009 2.40641C29.7021 2.40641 37.5945 10.2989 37.5945 20C37.5945 22.296 37.0368 25.0278 36.5362 26.0437C36.0923 26.9445 34.8346 28.213 33.4284 28.213C31.6082 28.213 30.1272 26.7322 30.1272 24.912V12.2253C30.1272 11.5609 29.5885 11.0221 28.924 11.0221C28.2596 11.0221 27.7208 11.5608 27.7208 12.2253V13.4547C25.8619 11.2655 23.0911 9.87367 20.0009 9.87367C14.4173 9.87367 9.87457 14.4163 9.87457 20C9.87457 25.5836 14.4171 30.1263 20.0009 30.1263C23.1915 30.1263 26.0417 28.6427 27.8991 26.3294C28.531 28.793 30.7703 30.6194 33.4283 30.6194C35.7495 30.6194 37.8347 28.8526 38.6947 27.1073C39.4271 25.6211 40.0008 22.4992 40.0008 20.0001C40.0009 14.6578 37.9205 9.63539 34.1431 5.85789ZM20.0009 27.7199C15.7442 27.7199 12.281 24.2568 12.281 20C12.281 15.7432 15.7441 12.2801 20.0009 12.2801C24.2577 12.2801 27.7208 15.7432 27.7208 20C27.7208 24.2568 24.2577 27.7199 20.0009 27.7199Z" fill="#263238"/>
</g>
<defs>
<clipPath id="clip0">
<rect width="40" height="40" fill="white"/>
</clipPath>
</defs>
</svg>
