<svg width="40" height="40" viewBox="0 0 40 40" fill="none" xmlns="http://www.w3.org/2000/svg">
<path d="M27.7619 17.7581V13.0072C27.7746 10.8575 26.916 8.79054 25.3833 7.28323C23.9014 5.80772 21.9616 5 19.9074 5C19.8756 5 19.8374 5 19.8056 5C15.4236 5.00636 11.862 8.59339 11.862 13.0072V17.7581C10.2084 17.9553 9 19.3417 9 21.0208V31.6928C9 33.5054 10.4501 35 12.2627 35H27.3676C29.1802 35 30.6303 33.5054 30.6303 31.6928V21.0208C30.6239 19.3481 29.4155 17.9553 27.7619 17.7581ZM13.1276 13.0072H13.134C13.134 9.29298 16.1295 6.25292 19.812 6.25292H19.8183C21.5673 6.24655 23.2463 6.93979 24.4865 8.17363C25.7776 9.45198 26.4963 11.1946 26.4836 13.0072V17.7645H25.0844V13.0072C25.0971 11.5635 24.5247 10.177 23.5007 9.15942C22.534 8.19271 21.2239 7.64575 19.8565 7.64575H19.8183C16.8927 7.64575 14.5268 10.0498 14.5268 13.0008V17.7645H13.1276V13.0072ZM23.8187 13.0072V17.7645H15.8052V13.0072C15.8052 10.7558 17.5987 8.9241 19.8247 8.9241H19.8628C20.8932 8.9241 21.8853 9.3375 22.6167 10.0689C23.3926 10.8448 23.8315 11.9069 23.8187 13.0072ZM29.4155 31.7119C29.4155 32.8249 28.5124 33.728 27.3994 33.728H12.2881C11.1751 33.728 10.272 32.8249 10.272 31.7119V21.0526C10.272 19.9396 11.1751 19.0365 12.2881 19.0365H27.3994C28.5124 19.0365 29.4155 19.9396 29.4155 21.0526V31.7119Z" fill="#263238"/>
<path d="M22.0127 25.9878C21.7328 25.002 20.8361 24.3279 19.8121 24.3279C18.5464 24.3279 17.5161 25.3518 17.5161 26.6238C17.5161 27.6478 18.1903 28.5445 19.1761 28.8244V30.6052C19.1761 30.955 19.4623 31.2412 19.8121 31.2412C20.1619 31.2412 20.4481 30.955 20.4481 30.6052V28.8244C21.6629 28.4746 22.3688 27.2026 22.0127 25.9878ZM19.8121 27.6414C19.246 27.6414 18.7881 27.1835 18.7881 26.6175C18.7881 26.0514 19.246 25.5935 19.8121 25.5935C20.3781 25.5935 20.8361 26.0514 20.8361 26.6175C20.8361 27.1835 20.3781 27.6414 19.8121 27.6414Z" fill="#263238"/>
</svg>
