<svg width="25" height="20" viewBox="0 0 25 20" fill="none" xmlns="http://www.w3.org/2000/svg">
<path d="M13.8231 14.7349C13.3871 15.0023 12.8286 15.1496 12.2506 15.1496C11.6726 15.1496 11.1141 15.0024 10.678 14.7349L3.55856 10.3684C3.55856 10.3684 2.91595 9.97453 2.91595 10.8668C2.91595 11.8801 2.91595 14.9199 2.91595 14.9199C2.91595 14.9605 2.91595 15.1639 2.91595 15.227C2.91595 17.5239 7.09515 20 12.2504 20C17.4057 20 21.5849 17.5239 21.5849 15.227C21.5849 15.1639 21.5849 14.9605 21.5849 14.9199C21.5849 14.9199 21.5849 11.6958 21.5849 10.621C21.5849 9.90477 21.128 10.2547 21.128 10.2547L13.8231 14.7349Z" fill="#263238"/>
<path d="M24.0908 6.89516C24.6379 6.55968 24.6379 6.01066 24.0908 5.67511L13.2452 0.251616C12.6981 -0.0838718 11.8029 -0.0838718 11.2559 0.251616L0.410286 5.67511C-0.136762 6.0106 -0.136762 6.55961 0.410286 6.89516L11.2559 13.5469C11.8029 13.8824 12.6981 13.8824 13.2452 13.5469" fill="#263238"/>
<path d="M23.6422 16.7546C23.6422 14.918 23.6422 9.4083 23.6422 9.4083C23.6422 9.4083 23.6473 9.06035 23.4409 9.17525C23.2753 9.26743 22.8693 9.49372 22.7262 9.61814C22.5611 9.76166 22.5983 10.0838 22.5983 10.0838C22.5983 10.0838 22.5983 15.0869 22.5983 16.7546C22.5983 16.8493 22.517 16.8945 22.4781 16.9173C22.1032 17.1377 21.8511 17.5446 21.8511 18.011C21.8511 18.7119 22.4193 19.2802 23.1203 19.2802C23.8213 19.2802 24.3894 18.7119 24.3894 18.011C24.3894 17.5428 24.1355 17.1347 23.7582 16.9148C23.7207 16.8929 23.6422 16.8492 23.6422 16.7546Z" fill="#263238"/>
</svg>
